<?xml version="1.0" encoding="utf-8"?>
<!-- Generator: Adobe Illustrator 28.2.0, SVG Export Plug-In . SVG Version: 6.00 Build 0)  -->
<svg version="1.1" id="Layer_1" xmlns="http://www.w3.org/2000/svg" xmlns:xlink="http://www.w3.org/1999/xlink" x="0px" y="0px"
	 viewBox="0 0 1800 360" style="enable-background:new 0 0 1800 360;" xml:space="preserve">
<style type="text/css">
	.st0{fill:#FFFFFF;}
	.st1{fill:url(#SVGID_1_);}
</style>
<g>
	<path class="st0" d="M1751.7,103.5c-0.4-11.8-3.8-23.3-10-33.4c-6.1-10.1-14.8-18.5-25.1-24.2s-21.9-8.8-33.7-8.8H180.3
		c-16.4,0-28.5,1.4-39.2,4.6c-11.4,3.4-21.1,8.9-30.4,17.2C99.8,68.6,85.9,94,61,143.8c-1.7,3.4-3.3,6.6-4.7,9.3
		c-5.1,10-7.8,21.3-8.1,32.6c-0.3,13.1,3,25.6,9.4,36c6.3,10.2,15.1,18.1,26.4,23.5c11.1,5.4,24.4,8.1,39.4,8.1c0,0,803.5,0,980,0
		c-2.5,14-2,29.8,7.5,43.8c11.6,17.1,32.7,25.8,62.8,25.8H1576c65.3,0,91.3-37.2,99.5-53.1c7.6-14.9,25-48.7,64.6-124.6
		c1.3-2.5,2.1-4,2.2-4.3l1.7-3.3C1749.4,127.1,1752.1,115.3,1751.7,103.5z M1733,131.8l-1.7,3.3c-0.2,0.3-1,1.9-2.3,4.4
		c-39.6,75.9-57,109.7-64.6,124.6c-4.6,9-13.5,21.8-30.1,31.8c-16,9.7-35.7,14.6-58.3,14.6h-402.1c-25.7,0-43.4-6.8-52.5-20.3
		c-10.5-15.5-6.7-34.7-1.8-49.3c-4.1,0-14.4,0-14.4,0H123.5c-32.6,0-48-14-55.2-25.7c-9.8-16-10.2-38.2-0.9-56.6
		c1.4-2.7,2.9-5.9,4.7-9.3C95.3,103,109.7,76.3,119,68c15.2-13.6,31.8-18.6,61.3-18.6H1683c19.6,0,38,10.4,48.2,27.1
		C1741.3,93.3,1742,114.5,1733,131.8z"/>
	
		<linearGradient id="SVGID_1_" gradientUnits="userSpaceOnUse" x1="278.4682" y1="-75.3176" x2="1524.769" y2="644.2344" gradientTransform="matrix(1 0 0 1 0 -138)">
		<stop  offset="0.1549" style="stop-color:#140946"/>
		<stop  offset="0.2909" style="stop-color:#82FFFE"/>
		<stop  offset="0.3789" style="stop-color:#1D0B77"/>
		<stop  offset="0.7983" style="stop-color:#82FFFE"/>
		<stop  offset="1" style="stop-color:#547DDC"/>
	</linearGradient>
	<path class="st1" d="M1683,49.5H180.3c-29.5,0-46.1,5-61.3,18.6c-9.3,8.3-23.7,35-46.9,81.3c-1.7,3.4-3.3,6.6-4.7,9.3
		c-9.3,18.4-9,40.6,0.9,56.6C75.5,227,90.9,241,123.5,241h967.3c0,0,21.3,0,28.8,0c-4.9,14.5-8.7,33.8,1.8,49.3
		c9.1,13.5,26.8,20.3,52.5,20.3H1576c22.7,0,42.3-4.9,58.3-14.6c16.5-10,25.5-22.8,30.1-31.8c7.6-14.9,25-48.7,64.6-124.6
		c1.3-2.5,2.1-4.1,2.3-4.4l1.7-3.3c9-17.4,8.3-38.5-1.9-55.3C1721,59.8,1702.5,49.5,1683,49.5z M1722,126.1
		c0,0-49.7,95.2-68.7,132.4c-9.5,18.7-32.5,39.6-77.4,39.6l0,0l0,0h-402.1l0,0c-70.8,0-41.7-54.2-36.3-69.6c-0.1,0-1014,0-1014,0
		l0,0c-52.3,0-56.9-40.8-45-64.3s38.2-77.6,48.7-87C139.7,66,153,61.7,180.3,61.7l0,0l0,0h1502.6l0,0c15.4,0,29.6,8,37.6,21.2
		C1728.6,96.1,1729.1,112.5,1722,126.1z"/>
	<g>
		<path class="st0" d="M219.3,127.8l-18,34.7h33.4l-1.6,3.1c-5.4,10.4-7,18.9-33.3,18.9c-17.1,0-72.6,0-72.6,0l1.6-3.2
			c5.4-10.4,12.1-18.9,28.7-18.9c13.5,0,14.5,0,14.5,0l18-34.7h-33.4l1.6-3.1c5.4-10.4,12.1-18.9,26.7-18.9c14.6,0,79.1,0,79.1,0
			l-1.6,3.1c-5.4,10.4-11.4,18.8-28.1,18.8C225.7,127.8,219.3,127.8,219.3,127.8z"/>
		<path class="st0" d="M567.1,127.8l-18,34.7h33.4l-1.6,3.1c-5.4,10.4-7,18.9-33.3,18.9c-17.1,0-72.6,0-72.6,0l1.6-3.2
			c5.4-10.4,12.1-18.9,28.7-18.9c13.5,0,14.5,0,14.5,0l18-34.7h-33.4l1.6-3.1c5.4-10.4,12.1-18.9,26.7-18.9c14.6,0,79.1,0,79.1,0
			l-1.6,3.1c-5.4,10.4-11.4,18.8-28.1,18.8C573.5,127.8,567.1,127.8,567.1,127.8z"/>
		<path class="st0" d="M803,127.8l-18,34.7h33.4l-1.6,3.1c-5.4,10.4-7,18.9-33.3,18.9c-17.1,0-72.6,0-72.6,0l1.6-3.2
			c5.4-10.4,12.1-18.9,28.7-18.9c13.5,0,14.5,0,14.5,0l18-34.7h-33.4l1.6-3.1c5.4-10.4,12.1-18.9,26.7-18.9c14.6,0,79.1,0,79.1,0
			l-1.6,3.1c-5.4,10.4-11.4,18.8-28.1,18.8C809.5,127.8,803,127.8,803,127.8z"/>
		<path class="st0" d="M1375.2,231.7l-25.4,11.3h31.4l-0.8,1.6c-2.8,5.8-3.8,9.5-16.1,9.5h-41.2c0,0,1.1-2.6,3.2-6.1
			c2.9-4.9,9-8.5,13.3-10.5l25.7-11.9h-30.4l0.8-1.6c1.9-4,5.4-9.5,13.9-9.5h42.4c0,0-1.3,3.3-3.6,6.8
			C1385.7,225.4,1380,229.3,1375.2,231.7z"/>
		<path class="st0" d="M421.4,136.4l4.4-8.6h49.4c15.1,0,21.8-8.4,26.4-17.4l2.4-4.7h-76.5c-20.5,0-24,8.5-29.4,18.9l-31,59.8h12.7
			c16.3,0,21-8.5,26.4-18.9l4.2-8.1h49.8c16,0,21.3-8.5,26.7-18.9l1.2-2.2H421.4z"/>
		<path class="st0" d="M1316.2,105.8h-65.9l-40.8,78.7h6.6c23.5,0,27.1-8.5,32.5-18.9l4.9-9.4h33.6c30,0,37.6-8.7,43-19.2l3.3-7
			C1338.9,119.6,1335.1,105.8,1316.2,105.8z M1304.2,135.2h-39.8l4.4-8.6h39.8L1304.2,135.2z"/>
		<path class="st0" d="M876.5,105.8c-14.6,0-21.3,8.5-26.7,18.9l-1.6,3.2c0,0,17,0,34.8,0l-29.4,56.7H866c17.8,0,21.2-8.5,26.6-18.9
			l19.6-37.8c8.1,0,14.4,0,16.6,0c16.6,0,22.7-8.5,28.1-18.9l1.6-3.1C958.6,105.8,891.1,105.8,876.5,105.8z"/>
		<path class="st0" d="M989.5,105.8c-14.6,0-21.3,7.1-27.3,18.9l-31,59.8c0,0,49.1,0,71.4,0c22.4,0,27.6-7.5,34.3-18.7l1.1-2.2
			h-66.9l4.4-8.6c0,0,35.3,0,51,0c15.6,0,21-9.6,25.1-17.6l1.2-2.2h-67l4.4-8.6c0,0,37.5,0,48,0c18.7,0,24-9.5,28.1-17.5l1.7-3.4
			H989.5z"/>
		<path class="st0" d="M1599.5,105.8c-14.6,0-21.3,7.1-27.3,18.9l-31,59.8c0,0,49.1,0,71.4,0c22.4,0,27.6-7.5,34.3-18.7l1.1-2.2
			h-66.9l4.4-8.6c0,0,35.3,0,51,0c15.6,0,20.9-9.6,25.1-17.6l1.2-2.3h-67l4.4-8.6c0,0,37.5,0,48,0c18.7,0,24-9.6,28.1-17.5l1.7-3.3
			H1599.5z"/>
		<path class="st0" d="M1163.6,105.8c-18.2,0-29.2,4.9-38.1,18.9l-2.3,4.2c-8.3,14.4-1.5,26.2,13.2,26.2s43.5,0,43.5,0l-4.5,8.6
			c0,0-31.2,0-50.5,0c-19.2,0-24.6,9.4-28.9,17.7l-1.6,3.2c28.2-0.1,45.7,0,74,0c21,0,26.6-8.7,32-19.1l3.9-7.9
			c4.4-8.4,5.2-22.3-15.9-22.3c-10.4,0-42,0-42,0l4.4-8.6c0,0,42.7,0,51.4,0c17.8,0,23.3-9.6,27.4-17.5l1.7-3.3H1163.6z"/>
		<path class="st0" d="M1491.2,127.8l-18,34.7h66.7l-1.6,3.1c-5.4,10.4-11.2,18.9-36.3,18.9h-69.6l30-58
			c7.6-14.2,13.3-20.7,29.8-20.7h77.1l-1.6,3.1c-5.4,10.4-11.1,18.8-35.1,18.8H1491.2z"/>
		<path class="st0" d="M1431.7,105.8h-49.2c-20.6,0-26.5,8.5-31.9,18.9l-31,59.8h10.3c18.5,0,23.4-8.5,28.8-18.9l4.9-9.4h37.4
			l-14.7,28.3h8.4c21.4,0,25.3-8.5,30.7-18.9l21.2-40.9C1452,114.3,1446,105.8,1431.7,105.8z M1412.5,135.2h-38.8l4.5-8.6h38.8
			L1412.5,135.2z"/>
		<path class="st0" d="M1533.1,214.5h-24.8c-10.4,0-13.4,4.3-16.1,9.5l-15.6,30.1h5.2c9.3,0,11.8-4.3,14.5-9.5l2.5-4.8h18.8
			l-7.4,14.3h4.2c10.8,0,12.7-4.3,15.5-9.5l10.7-20.6C1543.3,218.7,1540.3,214.5,1533.1,214.5z M1523.3,229.7h-19.7l2.6-5.1h19.7
			L1523.3,229.7z"/>
		<path class="st0" d="M1457.3,214.5h-24.8c-10.4,0-13.4,4.3-16.1,9.5l-15.6,30.1h5.2c9.3,0,11.8-4.3,14.5-9.5l2.5-4.8h18.8
			l-7.4,14.3h4.2c10.8,0,12.7-4.3,15.5-9.5l10.7-20.6C1467.5,218.7,1464.5,214.5,1457.3,214.5z M1447.5,229.7h-19.7l2.6-5.1h19.7
			L1447.5,229.7z"/>
		<path class="st0" d="M1305.8,214.5h-24.8c-10.4,0-13.4,4.3-16.1,9.5l-15.6,30.1h5.2c9.3,0,11.8-4.3,14.5-9.5l2.5-4.8h18.8
			l-7.4,14.3h4.2c10.8,0,12.7-4.3,15.5-9.5l10.7-20.6C1316.1,218.7,1313,214.5,1305.8,214.5z M1296.1,229.7h-19.7l2.6-5.1h19.7
			L1296.1,229.7z"/>
		<path class="st0" d="M1606.3,214.5h-32.8l-20.6,39.6h4.5c10.4,0,12.4-4.3,15.2-9.5l2.5-4.8h18.9l-7.4,14.3h14.7l5.3-10.3
			c2.7-5.3,0.7-9.5-3.2-9.5c4.7,0,9-2,11.7-7.3l0.6-1.3C1618.5,219.2,1614.6,214.5,1606.3,214.5z M1599.5,229.7h-19.1l2.6-5.1h19.1
			L1599.5,229.7z"/>
		<path class="st0" d="M1229.8,214.5c0,0-18.3,0-23.9,0c-11.8,0-14.3,5.4-16.9,10.4l-15.1,29.2h38.3c10.2,0,12.2-4.3,14.9-9.5
			l0.4-0.8c2.7-5.3-1.3-9.5-4.5-9.5c6.5,0,11.1-3.7,13.8-9l0.4-0.8C1240.1,219.3,1236.4,214.5,1229.8,214.5z M1212.9,243.9h-19.1
			l2.7-5.1h19.1L1212.9,243.9z M1220.3,229.7h-19.1l2.7-5.1h19.1L1220.3,229.7z"/>
		<path class="st0" d="M292.2,105.8c5.8,0,12.8,4.2,17,6.6c15.6,9,36.1,20.8,36.1,20.8l5.7-11c8.9-16.6,12.9-16.4,29.5-16.4h8.2
			l-31,59.8c-5.4,10.4-8.9,18.9-30.2,18.9h-8.9l16.8-32.3l-38.8-22.4l-18.6,35.9c-5.4,10.4-10.4,18.9-30.4,18.9h-8.7l31-59.8
			C277.8,109.9,284.6,105.8,292.2,105.8z"/>
		<path class="st0" d="M639.9,105.8c5.8,0,12.8,4.2,17,6.6c15.6,9,36.1,20.8,36.1,20.8l5.7-11c8.9-16.6,12.9-16.4,29.5-16.4h8.2
			l-31,59.8c-5.4,10.4-8.9,18.9-30.2,18.9h-8.9l16.8-32.3l-38.8-22.4l-18.6,35.9c-5.4,10.4-10.4,18.9-30.4,18.9h-8.7l31-59.8
			C625.5,109.9,632.2,105.8,639.9,105.8z"/>
	</g>
</g>
</svg>
